# xmcd
#
# Track frame offsets: 
#        150
#        19657
#        38079
#        53160
#        70190
#        92788
#        119437
#        146624
#        163635
#        187347
#        209523
#        231199
#        249179
#        269569
#        285879
#
# Disc length: 4106 seconds
#
# Revision: 8
# Processed by: cddbd v1.5.2PL0 Copyright (c) Steve Scherf et al.
# Submitted via: ExactAudioCopy v0.95b4
#
DISCID=d910080f
DTITLE=Fleetwood Mac - The Complete Blue Horizon Sessions 1967-1969 [D
DTITLE=isc 4]
DYEAR=1999
DGENRE=Blues
TTITLE0=Watch Out
TTITLE1=Ooh Baby
TTITLE2=South Indiana - Take I
TTITLE3=South Indiana Take 2
TTITLE4=Last Night
TTITLE5=Red Hot Jam Take 1
TTITLE6=Red Hot Jam
TTITLE7=I'm Worried
TTITLE8=I Held My Baby Last Night
TTITLE9=Madison Blues
TTITLE10=I Can't Hold Out
TTITLE11=Bobby's Rock
TTITLE12=I Need Your Love Take 2
TTITLE13=Horton's Boogie Woogie Take 1
TTITLE14=I Got The Blues
EXTD=
EXTT0=
EXTT1=
EXTT2=
EXTT3=
EXTT4=
EXTT5=
EXTT6=
EXTT7=
EXTT8=
EXTT9=
EXTT10=
EXTT11=
EXTT12=
EXTT13=
EXTT14=
PLAYORDER=
